<?xml version="1.0" encoding="UTF-8" standalone="no"?>
<!-- Created with Inkscape (http://www.inkscape.org/) -->

<svg
   xmlns:dc="http://purl.org/dc/elements/1.1/"
   xmlns:cc="http://creativecommons.org/ns#"
   xmlns:rdf="http://www.w3.org/1999/02/22-rdf-syntax-ns#"
   xmlns:svg="http://www.w3.org/2000/svg"
   xmlns="http://www.w3.org/2000/svg"
   xmlns:sodipodi="http://sodipodi.sourceforge.net/DTD/sodipodi-0.dtd"
   xmlns:inkscape="http://www.inkscape.org/namespaces/inkscape"
   version="1.0"
   x="0.0000000"
   y="0.0000000"
   viewbox="0 0 6.0000000 19.000000"
   id="svg1361"
   inkscape:version="0.48.5 r10040"
   sodipodi:docname="Sharp_ofKey.svg">
  <metadata
     id="metadata9">
    <rdf:RDF>
      <cc:Work
         rdf:about="">
        <dc:format>image/svg+xml</dc:format>
        <dc:type
           rdf:resource="http://purl.org/dc/dcmitype/StillImage" />
      </cc:Work>
    </rdf:RDF>
  </metadata>
  <sodipodi:namedview
     pagecolor="#ffffff"
     bordercolor="#666666"
     borderopacity="1"
     objecttolerance="10"
     gridtolerance="10"
     guidetolerance="10"
     inkscape:pageopacity="0"
     inkscape:pageshadow="2"
     inkscape:window-width="640"
     inkscape:window-height="480"
     id="namedview7"
     showgrid="false"
     inkscape:zoom="12.421053"
     inkscape:cx="3"
     inkscape:cy="9.5"
     inkscape:window-x="0"
     inkscape:window-y="0"
     inkscape:window-maximized="0"
     inkscape:current-layer="svg1361" />
  <defs
     id="defs1363" />
  <g
     transform="translate(0.000000,0.765000)"
     id="layer1"
     style="fill:#999999">
    <g
       transform="translate(-84.19600,-436.0680)"
       style="fill:#999999"
       id="g2103">
      <path
         d="M 86.102000,447.45700 L 86.102000,442.75300 L 88.102000,442.20100 L 88.102000,446.88100 L 86.102000,447.45700 z M 90.040000,446.31900 L 88.665000,446.71300 L 88.665000,442.03300 L 90.040000,441.64900 L 90.040000,439.70500 L 88.665000,440.08900 L 88.665000,435.30723 L 88.102000,435.30723 L 88.102000,440.23400 L 86.102000,440.80900 L 86.102000,436.15923 L 85.571000,436.15923 L 85.571000,440.98600 L 84.196000,441.37100 L 84.196000,443.31900 L 85.571000,442.93500 L 85.571000,447.60600 L 84.196000,447.98900 L 84.196000,449.92900 L 85.571000,449.54500 L 85.571000,454.29977 L 86.102000,454.29977 L 86.102000,449.37500 L 88.102000,448.82500 L 88.102000,453.45077 L 88.665000,453.45077 L 88.665000,448.65100 L 90.040000,448.26600 L 90.040000,446.31900 z "
         id="path2109"
         style="fill:#999999" />
    </g>
  </g>
</svg>
