<?xml version="1.0" encoding="UTF-8" standalone="no"?>
<!-- Created with Inkscape (http://www.inkscape.org/) -->

<svg
   xmlns:dc="http://purl.org/dc/elements/1.1/"
   xmlns:cc="http://creativecommons.org/ns#"
   xmlns:rdf="http://www.w3.org/1999/02/22-rdf-syntax-ns#"
   xmlns:svg="http://www.w3.org/2000/svg"
   xmlns="http://www.w3.org/2000/svg"
   xmlns:sodipodi="http://sodipodi.sourceforge.net/DTD/sodipodi-0.dtd"
   xmlns:inkscape="http://www.inkscape.org/namespaces/inkscape"
   viewbox="0 0 75 105.69"
   id="svg2"
   sodipodi:version="0.32"
   inkscape:version="0.48.5 r10040"
   sodipodi:docname="1-16_note.svg"
   inkscape:output_extension="org.inkscape.output.svg.inkscape"
   version="1.0">
  <defs
     id="defs4" />
  <sodipodi:namedview
     id="base"
     pagecolor="#ffffff"
     bordercolor="#666666"
     borderopacity="1.0"
     gridtolerance="10000"
     guidetolerance="10"
     objecttolerance="10"
     inkscape:pageopacity="0.0"
     inkscape:pageshadow="2"
     inkscape:zoom="2.52"
     inkscape:cx="-13.495785"
     inkscape:cy="55.14087"
     inkscape:document-units="px"
     inkscape:current-layer="layer1"
     inkscape:window-width="1366"
     inkscape:window-height="705"
     inkscape:window-x="1672"
     inkscape:window-y="-8"
     showgrid="false"
     fit-margin-top="0"
     fit-margin-left="0"
     fit-margin-right="0"
     fit-margin-bottom="0"
     inkscape:window-maximized="1" />
  <metadata
     id="metadata7">
    <rdf:RDF>
      <cc:Work
         rdf:about="">
        <dc:format>image/svg+xml</dc:format>
        <dc:type
           rdf:resource="http://purl.org/dc/dcmitype/StillImage" />
      </cc:Work>
    </rdf:RDF>
  </metadata>
  <g
     inkscape:label="Layer 1"
     inkscape:groupmode="layer"
     id="layer1"
     transform="translate(-3.57515,-24.45087)">
    <g
       id="g4284"
       transform="translate(-394.96111,-451.6459)">
      <path
         id="path2276"
         style="color:#000000;fill:#000000;fill-opacity:1;fill-rule:evenodd;stroke:none;stroke-width:1.5;marker:none;visibility:visible;display:inline;overflow:visible"
         d="m 438.95814,506.52608 0,13.5625 c 1.17182,1.21884 3.9062,2.81259 8.21875,4.78125 10.68743,3.32821 16.03118,6.62508 16.03125,9.90625 -7e-5,3.93757 -1.42195,7.04694 -4.28125,9.34375 l 2.09375,2.25 0.28125,0 c 5.71868,-4.49994 8.59367,-10.15618 8.59375,-17 -8e-5,-6.46866 -5.62508,-11.34366 -16.875,-14.625 -8.10943,-2.95303 -12.79693,-5.6874 -14.0625,-8.21875 z"
         inkscape:connector-curvature="0" />
      <path
         id="path2280"
         style="font-size:144px;font-style:normal;font-variant:normal;font-weight:normal;font-stretch:normal;text-align:start;line-height:100%;writing-mode:lr-tb;text-anchor:start;fill:#000000;fill-opacity:1;stroke:none;font-family:Bitstream Vera Sans"
         d="m 432.27064,476.09927 -0.5625,0.5 0,87 0,0.0312 0.4375,0.75 6.5,-0.5 0.3125,-0.28125 0,-38.09375 0,-32.59375 0,-13.5625 0,-2.75 -0.5625,-0.5 -6.125,0 z"
         inkscape:connector-curvature="0" />
      <path
         id="path2282"
         style="color:#000000;fill:#000000;fill-opacity:1;fill-rule:evenodd;stroke:none;stroke-width:1.5;marker:none;visibility:visible;display:inline;overflow:visible"
         d="m 438.95814,479.34927 0,13.5625 c 1.17182,1.21884 3.9062,2.81259 8.21875,4.78125 10.68743,3.32821 16.03118,6.62508 16.03125,9.90625 -7e-5,3.93757 -1.42195,7.04694 -4.28125,9.34375 l 2.09375,2.25 0.28125,0 c 5.71868,-4.49994 8.59367,-10.15618 8.59375,-17 -8e-5,-6.46866 -5.62508,-11.34366 -16.875,-14.625 -8.10943,-2.95303 -12.79693,-5.6874 -14.0625,-8.21875 z"
         inkscape:connector-curvature="0" />
      <path
         id="path2284"
         style="font-size:144px;font-style:normal;font-variant:normal;font-weight:normal;font-stretch:normal;text-align:start;line-height:100%;writing-mode:lr-tb;text-anchor:start;fill:#000000;fill-opacity:1;stroke:none;font-family:Bitstream Vera Sans"
         d="m 417.08314,559.13052 c -9.93752,1.07814 -14.90626,4.70314 -14.90625,10.84375 -1e-5,7.87501 5.68749,11.8125 17.03125,11.8125 l 4,0 c 10.49995,-2.10937 15.74995,-6.76562 15.75,-13.9375 l 0,-4.21875 -7.25,0 c -4.17191,-2.99998 -8.50004,-4.49998 -13,-4.5 l -1.625,0 z"
         inkscape:connector-curvature="0" />
    </g>
  </g>
</svg>
