<?xml version="1.0" encoding="UTF-8" standalone="no"?>
<!-- Created with Inkscape (http://www.inkscape.org/) -->

<svg
   xmlns:dc="http://purl.org/dc/elements/1.1/"
   xmlns:cc="http://creativecommons.org/ns#"
   xmlns:rdf="http://www.w3.org/1999/02/22-rdf-syntax-ns#"
   xmlns:svg="http://www.w3.org/2000/svg"
   xmlns="http://www.w3.org/2000/svg"
   xmlns:sodipodi="http://sodipodi.sourceforge.net/DTD/sodipodi-0.dtd"
   xmlns:inkscape="http://www.inkscape.org/namespaces/inkscape"
   version="1.0"
   viewbox="0 0 6 13"
   id="svg1361"
   inkscape:version="0.48.5 r10040"
   sodipodi:docname="Flat_ofKey.svg">
  <metadata
     id="metadata9">
    <rdf:RDF>
      <cc:Work
         rdf:about="">
        <dc:format>image/svg+xml</dc:format>
        <dc:type
           rdf:resource="http://purl.org/dc/dcmitype/StillImage" />
      </cc:Work>
    </rdf:RDF>
  </metadata>
  <sodipodi:namedview
     pagecolor="#ffffff"
     bordercolor="#666666"
     borderopacity="1"
     objecttolerance="10"
     gridtolerance="10"
     guidetolerance="10"
     inkscape:pageopacity="0"
     inkscape:pageshadow="2"
     inkscape:window-width="640"
     inkscape:window-height="480"
     id="namedview7"
     showgrid="false"
     inkscape:zoom="18.153846"
     inkscape:cx="3"
     inkscape:cy="6.5"
     inkscape:window-x="0"
     inkscape:window-y="0"
     inkscape:window-maximized="0"
     inkscape:current-layer="svg1361" />
  <defs
     id="defs1363" />
  <g
     transform="translate(0,-1.53013)"
     id="layer1"
     style="fill:#999999">
    <g
       transform="translate(-94.947,-433.75)"
       style="fill:#999999"
       id="g2111">
      <path
         d="M 98.166,443.657 C 98.166,444.232 97.950425,444.78273 97.359,445.52188 C 96.732435,446.30494 96.205,446.75313 95.51,447.28013 L 95.51,443.848 C 95.668,443.449 95.901,443.126 96.21,442.878 C 96.518,442.631 96.83,442.507 97.146,442.507 C 97.668,442.507 97.999,442.803 98.142,443.393 C 98.158,443.441 98.166,443.529 98.166,443.657 z M 98.091,441.257 C 97.66,441.257 97.222,441.376 96.776,441.615 C 96.33,441.853 95.908,442.172 95.51,442.569 L 95.51,435.29733 L 94.947,435.29733 L 94.947,447.75213 C 94.947,448.10413 95.043,448.28013 95.235,448.28013 C 95.346,448.28013 95.483913,448.18713 95.69,448.06413 C 96.27334,447.71598 96.636935,447.48332 97.032,447.23788 C 97.482617,446.95792 97.99,446.631 98.661,445.991 C 99.124,445.526 99.459,445.057 99.667,444.585 C 99.874,444.112 99.978,443.644 99.978,443.179 C 99.978,442.491 99.795,442.002 99.429,441.713 C 99.015,441.409 98.568,441.257 98.091,441.257 z "
         id="path2117"
         style="fill:#999999" />
    </g>
  </g>
</svg>
