<?xml version="1.0" encoding="UTF-8" standalone="no"?>
<!-- Created with Inkscape (http://www.inkscape.org/) -->

<svg
   xmlns:dc="http://purl.org/dc/elements/1.1/"
   xmlns:cc="http://creativecommons.org/ns#"
   xmlns:rdf="http://www.w3.org/1999/02/22-rdf-syntax-ns#"
   xmlns:svg="http://www.w3.org/2000/svg"
   xmlns="http://www.w3.org/2000/svg"
   xmlns:sodipodi="http://sodipodi.sourceforge.net/DTD/sodipodi-0.dtd"
   xmlns:inkscape="http://www.inkscape.org/namespaces/inkscape"
   width="961.38318"
   height="232.65012"
   id="svg3033"
   version="1.1"
   inkscape:version="0.48.5 r10040"
   sodipodi:docname="staff5.svg">
  <defs
     id="defs3035" />
  <sodipodi:namedview
     id="base"
     pagecolor="#ffffff"
     bordercolor="#666666"
     borderopacity="1.0"
     inkscape:pageopacity="0.0"
     inkscape:pageshadow="2"
     inkscape:zoom="2"
     inkscape:cx="250.26388"
     inkscape:cy="94.473546"
     inkscape:document-units="px"
     inkscape:current-layer="layer1"
     showgrid="false"
     inkscape:window-width="1680"
     inkscape:window-height="987"
     inkscape:window-x="-8"
     inkscape:window-y="-8"
     inkscape:window-maximized="1"
     fit-margin-top="20"
     fit-margin-bottom="20"
     fit-margin-left="10"
     fit-margin-right="10" />
  <metadata
     id="metadata3038">
    <rdf:RDF>
      <cc:Work
         rdf:about="">
        <dc:format>image/svg+xml</dc:format>
        <dc:type
           rdf:resource="http://purl.org/dc/dcmitype/StillImage" />
        <dc:title></dc:title>
      </cc:Work>
    </rdf:RDF>
  </metadata>
  <g
     inkscape:label="Ebene 1"
     inkscape:groupmode="layer"
     id="layer1"
     transform="translate(9.8010926,-719.81036)">
    <rect
       style="fill:#e6e6e6;fill-opacity:1;fill-rule:evenodd"
       id="rect3433-8-4"
       width="941.38318"
       height="1.0782721"
       x="0.19890743"
       y="835.59625" />
    <rect
       style="fill:#e6e6e6;fill-opacity:1;fill-rule:evenodd"
       id="rect3435-5"
       width="940.91803"
       height="1.0782721"
       x="0.19890743"
       y="917.69849" />
    <rect
       style="fill:#e6e6e6;fill-opacity:1;fill-rule:evenodd"
       id="rect3437-1"
       width="940.91809"
       height="1.0782721"
       x="0.19890743"
       y="931.3822" />
    <rect
       style="fill:#e6e6e6;fill-opacity:1;fill-rule:evenodd"
       id="rect2440-4-4"
       width="940.91803"
       height="1.0782721"
       x="0.19890743"
       y="739.81036" />
    <rect
       style="fill:#e6e6e6;fill-opacity:1;fill-rule:evenodd"
       id="rect3413-8-8"
       width="941.38306"
       height="1.0782721"
       x="0.19890743"
       y="753.49408" />
    <g
       style="fill-rule:evenodd"
       id="g2402"
       transform="matrix(0.02320333,0,0,0.02313534,-21.018756,701.7053)">
      <path
         inkscape:connector-curvature="0"
         class="fil1 str1"
         d="m 1239,8245 c 158,-107 276,-188 352,-244 76,-55 156,-124 238,-206 82,-82 151,-175 207,-278 44,-76 82,-164 113,-264 31,-99 47,-195 50,-286 0,-85 -11,-166 -34,-242 -22,-77 -60,-140 -114,-191 -54,-50 -124,-75 -211,-75 -84,0 -163,17 -237,50 -73,34 -125,88 -154,164 0,7 -4,16 -10,29 2,16 10,28 25,37 15,9 28,13 40,13 6,0 23,-3 49,-9 27,-6 49,-10 67,-10 53,0 100,19 143,56 42,37 63,82 63,135 0,38 -11,74 -32,107 -21,33 -50,60 -87,79 -37,20 -78,29 -122,29 -80,0 -148,-24 -204,-73 -55,-50 -83,-113 -83,-192 0,-101 31,-188 92,-262 62,-74 140,-129 236,-166 95,-38 191,-56 289,-56 107,0 209,27 304,82 96,54 171,129 227,222 56,94 85,194 85,302 0,192 -64,370 -192,535 -128,165 -286,308 -475,430 -126,83 -330,195 -611,336 l -14,-52 z M 2628,6698 c 0,-36 13,-66 39,-90 25,-25 56,-37 93,-37 32,0 62,14 89,41 27,26 40,57 40,91 0,36 -14,67 -40,92 -28,24 -59,36 -94,36 -37,0 -67,-12 -91,-39 -24,-26 -36,-57 -36,-94 z m 0,524 c 0,-36 13,-67 37,-91 25,-25 56,-37 95,-37 32,0 61,13 89,40 26,27 40,56 40,88 0,39 -13,70 -38,95 -26,25 -56,38 -91,38 -39,0 -70,-13 -95,-37 -24,-24 -37,-56 -37,-96 z"
         id="path2414"
         style="fill:#131516;stroke:#131516;stroke-width:3" />
    </g>
    <rect
       style="fill:#131516;fill-opacity:1;fill-rule:evenodd"
       id="rect2440"
       width="940.91803"
       height="1.0782721"
       x="0.19890743"
       y="849.27997" />
    <rect
       style="fill:#131516;fill-opacity:1;fill-rule:evenodd"
       id="rect3413"
       width="941.38306"
       height="1.0782721"
       x="0.19890743"
       y="862.96368" />
    <rect
       style="fill:#131516;fill-opacity:1;fill-rule:evenodd"
       id="rect3433"
       width="941.38318"
       height="1.0782721"
       x="0.19890743"
       y="876.6474" />
    <rect
       style="fill:#131516;fill-opacity:1;fill-rule:evenodd"
       id="rect3435"
       width="940.91803"
       height="1.0782721"
       x="0.19890743"
       y="890.33112" />
    <rect
       style="fill:#131516;fill-opacity:1;fill-rule:evenodd"
       id="rect3437"
       width="940.91809"
       height="1.0782721"
       x="0.19890743"
       y="904.01477" />
    <g
       style="fill-rule:evenodd"
       id="g2416"
       transform="matrix(0.02270098,0,0,0.02312984,-16.908157,620.68445)">
      <path
         inkscape:connector-curvature="0"
         class="fil0 str0"
         d="m 2002,7851 c -61,17 -116,55 -167,113 -51,59 -76,124 -76,194 0,44 15,94 44,147 29,54 73,93 130,118 19,4 28,14 28,28 0,5 -7,10 -24,14 -91,-23 -166,-72 -224,-145 -58,-74 -88,-158 -90,-254 3,-103 34,-199 93,-287 60,-89 137,-152 231,-189 l -69,-355 c -154,128 -279,261 -376,401 -97,139 -147,290 -151,453 2,73 17,144 45,212 28,69 70,131 126,188 113,113 260,172 439,178 61,-4 126,-15 196,-33 l -155,-783 z m 72,-10 156,769 c 154,-62 231,-197 231,-403 -9,-69 -29,-131 -63,-186 -33,-56 -77,-100 -133,-132 -56,-32 -119,-48 -191,-48 z M 1869,6801 c 33,-20 71,-55 112,-104 41,-48 81,-105 119,-169 39,-65 70,-131 93,-198 23,-66 34,-129 34,-187 0,-25 -2,-50 -7,-72 -4,-36 -15,-64 -34,-83 -19,-18 -43,-28 -73,-28 -60,0 -114,37 -162,111 -37,64 -68,140 -90,226 -23,87 -36,173 -38,260 5,99 21,180 46,244 z m -63,58 c -45,-162 -70,-327 -75,-495 1,-108 12,-209 33,-303 20,-94 49,-175 87,-245 37,-70 80,-123 128,-159 43,-32 74,-49 91,-49 13,0 24,5 34,14 10,9 23,24 39,44 119,169 179,373 179,611 0,113 -15,223 -45,333 -29,109 -72,213 -129,310 -58,98 -126,183 -205,256 l 81,394 c 44,-5 74,-9 91,-9 76,0 144,16 207,48 63,32 117,75 161,130 44,54 78,116 102,186 23,70 36,143 36,219 0,118 -31,226 -93,323 -62,97 -155,168 -280,214 8,49 22,120 43,211 20,92 35,165 45,219 10,54 14,106 14,157 0,79 -19,149 -57,211 -39,62 -91,110 -157,144 -65,34 -137,51 -215,51 -110,0 -206,-31 -288,-92 -82,-62 -126,-145 -130,-251 3,-47 14,-91 34,-133 20,-42 47,-76 82,-102 34,-27 75,-41 122,-44 39,0 76,11 111,32 34,22 62,51 83,88 20,37 31,78 31,122 0,59 -20,109 -60,150 -40,41 -91,62 -152,62 l -23,0 c 39,60 103,91 192,91 45,0 91,-10 137,-28 47,-19 86,-44 119,-76 33,-32 55,-66 64,-102 17,-41 25,-98 25,-169 0,-48 -5,-96 -14,-144 -9,-47 -23,-110 -42,-188 -19,-77 -33,-137 -41,-178 -60,15 -122,23 -187,23 -109,0 -212,-22 -309,-67 -97,-45 -182,-107 -256,-187 -73,-80 -130,-170 -171,-272 -40,-101 -61,-207 -62,-317 4,-102 23,-200 59,-292 36,-93 82,-181 139,-263 57,-82 116,-157 177,-224 62,-66 143,-151 245,-254 z"
         id="path2418"
         style="fill:#131516;stroke:#131516;stroke-width:3" />
    </g>
    <rect
       style="fill:#131516;fill-opacity:1;fill-rule:evenodd"
       id="rect2440-4"
       width="940.91803"
       height="1.0782721"
       x="0.19890743"
       y="767.1778" />
    <rect
       style="fill:#131516;fill-opacity:1;fill-rule:evenodd"
       id="rect3413-8"
       width="941.38306"
       height="1.0782721"
       x="0.19890743"
       y="780.86145" />
    <rect
       style="fill:#131516;fill-opacity:1;fill-rule:evenodd"
       id="rect3433-8"
       width="941.38318"
       height="1.0782721"
       x="0.19890743"
       y="794.54517" />
    <rect
       style="fill:#131516;fill-opacity:1;fill-rule:evenodd"
       id="rect3435-2"
       width="940.91803"
       height="1.0782721"
       x="0.19890743"
       y="808.22888" />
    <rect
       style="fill:#131516;fill-opacity:1;fill-rule:evenodd"
       id="rect3437-4"
       width="940.91809"
       height="1.0782721"
       x="0.19890743"
       y="821.9126" />
  </g>
</svg>
